<?xml version="1.0" encoding="utf-8"?>
<!-- Generator: Adobe Illustrator 23.0.1, SVG Export Plug-In . SVG Version: 6.00 Build 0)  -->
<svg version="1.1" id="Layer_1" xmlns="http://www.w3.org/2000/svg" xmlns:xlink="http://www.w3.org/1999/xlink" x="0px" y="0px"
	 viewBox="0 0 1444 392" style="enable-background:new 0 0 1444 392;" xml:space="preserve">
<style type="text/css">
	.st0{fill:url(#SVGID_1_);}
	.st1{fill:url(#SVGID_2_);}
</style>
<linearGradient id="SVGID_1_" gradientUnits="userSpaceOnUse" x1="0.912" y1="196" x2="466.031" y2="196" gradientTransform="matrix(1 0 0 -1 0 392)">
	<stop  offset="0" style="stop-color:#FFFFFF"/>
	<stop  offset="1" style="stop-color:#FFFFFF;stop-opacity:0"/>
</linearGradient>
<path class="st0" d="M464,392v-2h2v2H464z M439.6,392v-2h2v2H439.6z M415.3,392v-2h2v2H415.3z M390.9,392v-2h2v2H390.9z M366.5,392
	v-2h2v2H366.5z M342.1,392v-2h2v2H342.1z M317.8,392v-2h2v2H317.8z M293.4,392v-2h2v2H293.4z M269,392v-2h2v2H269z M244.6,392v-2h2
	v2H244.6z M220.3,392v-2h2v2H220.3z M195.9,392v-2h2v2H195.9z M171.5,392v-2h2v2H171.5z M147.2,392v-2h2v2H147.2z M122.8,392v-2h2v2
	H122.8z M98.4,392v-2h2v2H98.4L98.4,392z M74,392v-2h2v2H74L74,392z M49.7,392v-2h2v2H49.7z M25.3,392v-2h2v2H25.3z M0.9,392v-2h2v2
	H0.9z M464,367.6v-2h2v2H464z M439.6,367.6v-2h2v2H439.6z M415.3,367.6v-2h2v2H415.3z M390.9,367.6v-2h2v2H390.9z M366.5,367.6v-2h2
	v2H366.5z M342.1,367.6v-2h2v2H342.1z M317.8,367.6v-2h2v2H317.8z M293.4,367.6v-2h2v2H293.4z M269,367.6v-2h2v2H269z M244.6,367.6
	v-2h2v2H244.6z M220.3,367.6v-2h2v2H220.3z M195.9,367.6v-2h2v2H195.9z M171.5,367.6v-2h2v2H171.5z M147.2,367.6v-2h2v2H147.2z
	 M122.8,367.6v-2h2v2H122.8z M98.4,367.6v-2h2v2H98.4L98.4,367.6z M74,367.6v-2h2v2H74L74,367.6z M49.7,367.6v-2h2v2H49.7z
	 M25.3,367.6v-2h2v2H25.3z M0.9,367.6v-2h2v2H0.9L0.9,367.6z M464,343.3v-2h2v2H464z M439.6,343.3v-2h2v2H439.6z M415.3,343.3v-2h2
	v2H415.3z M390.9,343.3v-2h2v2H390.9z M366.5,343.3v-2h2v2H366.5z M342.1,343.3v-2h2v2H342.1z M317.8,343.3v-2h2v2H317.8z
	 M293.4,343.3v-2h2v2H293.4z M269,343.3v-2h2v2H269z M244.6,343.3v-2h2v2H244.6z M220.3,343.3v-2h2v2H220.3z M195.9,343.3v-2h2v2
	H195.9z M171.5,343.3v-2h2v2H171.5z M147.2,343.3v-2h2v2H147.2z M122.8,343.3v-2h2v2H122.8z M98.4,343.3v-2h2v2H98.4L98.4,343.3z
	 M74,343.3v-2h2v2H74L74,343.3z M49.7,343.3v-2h2v2H49.7z M25.3,343.3v-2h2v2H25.3z M0.9,343.3v-2h2v2H0.9L0.9,343.3z M464,318.9v-2
	h2v2H464z M439.6,318.9v-2h2v2H439.6z M415.3,318.9v-2h2v2H415.3z M390.9,318.9v-2h2v2H390.9z M366.5,318.9v-2h2v2H366.5z
	 M342.1,318.9v-2h2v2H342.1z M317.8,318.9v-2h2v2H317.8z M293.4,318.9v-2h2v2H293.4z M269,318.9v-2h2v2H269z M244.6,318.9v-2h2v2
	H244.6z M220.3,318.9v-2h2v2H220.3z M195.9,318.9v-2h2v2H195.9z M171.5,318.9v-2h2v2H171.5z M147.2,318.9v-2h2v2H147.2z
	 M122.8,318.9v-2h2v2H122.8z M98.4,318.9v-2h2v2H98.4L98.4,318.9z M74,318.9v-2h2v2H74L74,318.9z M49.7,318.9v-2h2v2H49.7z
	 M25.3,318.9v-2h2v2H25.3z M0.9,318.9v-2h2v2H0.9L0.9,318.9z M464,294.5v-2h2v2H464z M439.6,294.5v-2h2v2H439.6z M415.3,294.5v-2h2
	v2H415.3z M390.9,294.5v-2h2v2H390.9z M366.5,294.5v-2h2v2H366.5z M342.1,294.5v-2h2v2H342.1z M317.8,294.5v-2h2v2H317.8z
	 M293.4,294.5v-2h2v2H293.4z M269,294.5v-2h2v2H269z M244.6,294.5v-2h2v2H244.6z M220.3,294.5v-2h2v2H220.3z M195.9,294.5v-2h2v2
	H195.9z M171.5,294.5v-2h2v2H171.5z M147.2,294.5v-2h2v2H147.2z M122.8,294.5v-2h2v2H122.8z M98.4,294.5v-2h2v2H98.4L98.4,294.5z
	 M74,294.5v-2h2v2H74L74,294.5z M49.7,294.5v-2h2v2H49.7z M25.3,294.5v-2h2v2H25.3z M0.9,294.5v-2h2v2H0.9L0.9,294.5z M464,270.1v-2
	h2v2H464z M439.6,270.1v-2h2v2H439.6z M415.3,270.1v-2h2v2H415.3z M390.9,270.1v-2h2v2H390.9z M366.5,270.1v-2h2v2H366.5z
	 M342.1,270.1v-2h2v2H342.1z M317.8,270.1v-2h2v2H317.8z M293.4,270.1v-2h2v2H293.4z M269,270.1v-2h2v2H269z M244.6,270.1v-2h2v2
	H244.6z M220.3,270.1v-2h2v2H220.3z M195.9,270.1v-2h2v2H195.9z M171.5,270.1v-2h2v2H171.5z M147.2,270.1v-2h2v2H147.2z
	 M122.8,270.1v-2h2v2H122.8z M98.4,270.1v-2h2v2H98.4L98.4,270.1z M74,270.1v-2h2v2H74L74,270.1z M49.7,270.1v-2h2v2H49.7z
	 M25.3,270.1v-2h2v2H25.3z M0.9,270.1v-2h2v2H0.9L0.9,270.1z M464,245.8v-2h2v2H464z M439.6,245.8v-2h2v2H439.6z M415.3,245.8v-2h2
	v2H415.3z M390.9,245.8v-2h2v2H390.9z M366.5,245.8v-2h2v2H366.5z M342.1,245.8v-2h2v2H342.1z M317.8,245.8v-2h2v2H317.8z
	 M293.4,245.8v-2h2v2H293.4z M269,245.8v-2h2v2H269z M244.6,245.8v-2h2v2H244.6z M220.3,245.8v-2h2v2H220.3z M195.9,245.8v-2h2v2
	H195.9z M171.5,245.8v-2h2v2H171.5z M147.2,245.8v-2h2v2H147.2z M122.8,245.8v-2h2v2H122.8z M98.4,245.8v-2h2v2H98.4L98.4,245.8z
	 M74,245.8v-2h2v2H74L74,245.8z M49.7,245.8v-2h2v2H49.7z M25.3,245.8v-2h2v2H25.3z M0.9,245.8v-2h2v2H0.9L0.9,245.8z M464,221.4v-2
	h2v2H464z M439.6,221.4v-2h2v2H439.6z M415.3,221.4v-2h2v2H415.3z M390.9,221.4v-2h2v2H390.9z M366.5,221.4v-2h2v2H366.5z
	 M342.1,221.4v-2h2v2H342.1z M317.8,221.4v-2h2v2H317.8z M293.4,221.4v-2h2v2H293.4z M269,221.4v-2h2v2H269z M244.6,221.4v-2h2v2
	H244.6z M220.3,221.4v-2h2v2H220.3z M195.9,221.4v-2h2v2H195.9z M171.5,221.4v-2h2v2H171.5z M147.2,221.4v-2h2v2H147.2z
	 M122.8,221.4v-2h2v2H122.8z M98.4,221.4v-2h2v2H98.4L98.4,221.4z M74,221.4v-2h2v2H74L74,221.4z M49.7,221.4v-2h2v2H49.7z
	 M25.3,221.4v-2h2v2H25.3z M0.9,221.4v-2h2v2H0.9L0.9,221.4z M464,197v-2h2v2H464z M439.6,197v-2h2v2H439.6z M415.3,197v-2h2v2
	H415.3z M390.9,197v-2h2v2H390.9z M366.5,197v-2h2v2H366.5z M342.1,197v-2h2v2H342.1z M317.8,197v-2h2v2H317.8z M293.4,197v-2h2v2
	H293.4z M269,197v-2h2v2H269z M244.6,197v-2h2v2H244.6z M220.3,197v-2h2v2H220.3z M195.9,197v-2h2v2H195.9z M171.5,197v-2h2v2H171.5
	z M147.2,197v-2h2v2H147.2z M122.8,197v-2h2v2H122.8z M98.4,197v-2h2v2H98.4L98.4,197z M74,197v-2h2v2H74L74,197z M49.7,197v-2h2v2
	H49.7z M25.3,197v-2h2v2H25.3z M0.9,197v-2h2v2H0.9L0.9,197z M464,172.6v-2h2v2H464z M439.6,172.6v-2h2v2H439.6z M415.3,172.6v-2h2
	v2H415.3z M390.9,172.6v-2h2v2H390.9z M366.5,172.6v-2h2v2H366.5z M342.1,172.6v-2h2v2H342.1z M317.8,172.6v-2h2v2H317.8z
	 M293.4,172.6v-2h2v2H293.4z M269,172.6v-2h2v2H269z M244.6,172.6v-2h2v2H244.6z M220.3,172.6v-2h2v2H220.3z M195.9,172.6v-2h2v2
	H195.9z M171.5,172.6v-2h2v2H171.5z M147.2,172.6v-2h2v2H147.2z M122.8,172.6v-2h2v2H122.8z M98.4,172.6v-2h2v2H98.4L98.4,172.6z
	 M74,172.6v-2h2v2H74L74,172.6z M49.7,172.6v-2h2v2H49.7z M25.3,172.6v-2h2v2H25.3z M0.9,172.6v-2h2v2H0.9L0.9,172.6z M464,148.3v-2
	h2v2H464z M439.6,148.3v-2h2v2H439.6z M415.3,148.3v-2h2v2H415.3z M390.9,148.3v-2h2v2H390.9z M366.5,148.3v-2h2v2H366.5z
	 M342.1,148.3v-2h2v2H342.1z M317.8,148.3v-2h2v2H317.8z M293.4,148.3v-2h2v2H293.4z M269,148.3v-2h2v2H269z M244.6,148.3v-2h2v2
	H244.6z M220.3,148.3v-2h2v2H220.3z M195.9,148.3v-2h2v2H195.9z M171.5,148.3v-2h2v2H171.5z M147.2,148.3v-2h2v2H147.2z
	 M122.8,148.3v-2h2v2H122.8z M98.4,148.3v-2h2v2H98.4L98.4,148.3z M74,148.3v-2h2v2H74L74,148.3z M49.7,148.3v-2h2v2H49.7z
	 M25.3,148.3v-2h2v2H25.3z M0.9,148.3v-2h2v2H0.9L0.9,148.3z M464,123.9v-2h2v2H464z M439.6,123.9v-2h2v2H439.6z M415.3,123.9v-2h2
	v2H415.3z M390.9,123.9v-2h2v2H390.9z M366.5,123.9v-2h2v2H366.5z M342.1,123.9v-2h2v2H342.1z M317.8,123.9v-2h2v2H317.8z
	 M293.4,123.9v-2h2v2H293.4z M269,123.9v-2h2v2H269z M244.6,123.9v-2h2v2H244.6z M220.3,123.9v-2h2v2H220.3z M195.9,123.9v-2h2v2
	H195.9z M171.5,123.9v-2h2v2H171.5z M147.2,123.9v-2h2v2H147.2z M122.8,123.9v-2h2v2H122.8z M98.4,123.9v-2h2v2H98.4L98.4,123.9z
	 M74,123.9v-2h2v2H74L74,123.9z M49.7,123.9v-2h2v2H49.7z M25.3,123.9v-2h2v2H25.3z M0.9,123.9v-2h2v2H0.9L0.9,123.9z M464,99.5v-2
	h2v2H464z M439.6,99.5v-2h2v2H439.6z M415.3,99.5v-2h2v2H415.3z M390.9,99.5v-2h2v2H390.9z M366.5,99.5v-2h2v2H366.5z M342.1,99.5
	v-2h2v2H342.1z M317.8,99.5v-2h2v2H317.8z M293.4,99.5v-2h2v2H293.4z M269,99.5v-2h2v2H269z M244.6,99.5v-2h2v2H244.6z M220.3,99.5
	v-2h2v2H220.3z M195.9,99.5v-2h2v2H195.9z M171.5,99.5v-2h2v2H171.5z M147.2,99.5v-2h2v2H147.2z M122.8,99.5v-2h2v2H122.8z
	 M98.4,99.5v-2h2v2H98.4L98.4,99.5z M74,99.5v-2h2v2H74L74,99.5z M49.7,99.5v-2h2v2H49.7z M25.3,99.5v-2h2v2H25.3z M0.9,99.5v-2h2v2
	H0.9L0.9,99.5z M464,75.2v-2h2v2H464z M439.6,75.2v-2h2v2H439.6z M415.3,75.2v-2h2v2H415.3z M390.9,75.2v-2h2v2H390.9z M366.5,75.2
	v-2h2v2H366.5z M342.1,75.2v-2h2v2H342.1z M317.8,75.2v-2h2v2H317.8z M293.4,75.2v-2h2v2H293.4z M269,75.2v-2h2v2H269z M244.6,75.2
	v-2h2v2H244.6z M220.3,75.2v-2h2v2H220.3z M195.9,75.2v-2h2v2H195.9z M171.5,75.2v-2h2v2H171.5z M147.2,75.2v-2h2v2H147.2z
	 M122.8,75.2v-2h2v2H122.8z M98.4,75.2v-2h2v2H98.4L98.4,75.2z M74,75.2v-2h2v2H74L74,75.2z M49.7,75.2v-2h2v2H49.7z M25.3,75.2v-2
	h2v2H25.3z M0.9,75.2v-2h2v2H0.9L0.9,75.2z M464,50.8v-2h2v2H464z M439.6,50.8v-2h2v2H439.6z M415.3,50.8v-2h2v2H415.3z M390.9,50.8
	v-2h2v2H390.9z M366.5,50.8v-2h2v2H366.5z M342.1,50.8v-2h2v2H342.1z M317.8,50.8v-2h2v2H317.8z M293.4,50.8v-2h2v2H293.4z
	 M269,50.8v-2h2v2H269z M244.6,50.8v-2h2v2H244.6z M220.3,50.8v-2h2v2H220.3z M195.9,50.8v-2h2v2H195.9z M171.5,50.8v-2h2v2H171.5z
	 M147.2,50.8v-2h2v2H147.2z M122.8,50.8v-2h2v2H122.8z M98.4,50.8v-2h2v2H98.4L98.4,50.8z M74,50.8v-2h2v2H74L74,50.8z M49.7,50.8
	v-2h2v2H49.7z M25.3,50.8v-2h2v2H25.3z M0.9,50.8v-2h2v2H0.9L0.9,50.8z M464,26.4v-2h2v2H464z M439.6,26.4v-2h2v2H439.6z
	 M415.3,26.4v-2h2v2H415.3z M390.9,26.4v-2h2v2H390.9z M366.5,26.4v-2h2v2H366.5z M342.1,26.4v-2h2v2H342.1z M317.8,26.4v-2h2v2
	H317.8z M293.4,26.4v-2h2v2H293.4z M269,26.4v-2h2v2H269z M244.6,26.4v-2h2v2H244.6z M220.3,26.4v-2h2v2H220.3z M195.9,26.4v-2h2v2
	H195.9z M171.5,26.4v-2h2v2H171.5z M147.2,26.4v-2h2v2H147.2z M122.8,26.4v-2h2v2H122.8z M98.4,26.4v-2h2v2H98.4L98.4,26.4z
	 M74,26.4v-2h2v2H74L74,26.4z M49.7,26.4v-2h2v2H49.7z M25.3,26.4v-2h2v2H25.3z M0.9,26.4v-2h2v2H0.9L0.9,26.4z M464,2V0h2v2H464z
	 M439.6,2V0h2v2H439.6z M415.3,2V0h2v2H415.3z M366.5,2V0h2v2H366.5z M342.1,2V0h2v2H342.1z M317.8,2V0h2v2H317.8z M293.4,2V0h2v2
	H293.4z M269,2V0h2v2H269z M244.6,2V0h2v2H244.6z M220.3,2V0h2v2H220.3z M195.9,2V0h2v2H195.9z M171.5,2V0h2v2H171.5z M147.2,2V0h2
	v2H147.2z M122.8,2V0h2v2H122.8z M98.4,2V0h2v2H98.4L98.4,2z M74,2V0h2v2H74L74,2z M49.7,2V0h2v2H49.7z M25.3,2V0h2v2H25.3z M0.9,2
	V0h2v2H0.9L0.9,2z"/>
<linearGradient id="SVGID_2_" gradientUnits="userSpaceOnUse" x1="1444" y1="196" x2="978.881" y2="196" gradientTransform="matrix(1 0 0 -1 0 392)">
	<stop  offset="0" style="stop-color:#FFFFFF"/>
	<stop  offset="1" style="stop-color:#FFFFFF;stop-opacity:0"/>
</linearGradient>
<path class="st1" d="M978.9,392v-2h2v2H978.9z M1003.2,392v-2h2v2H1003.2z M1027.6,392v-2h2v2H1027.6z M1052,392v-2h2v2H1052z
	 M1076.4,392v-2h2v2H1076.4z M1100.8,392v-2h2v2H1100.8z M1125.1,392v-2h2v2H1125.1z M1149.5,392v-2h2v2H1149.5z M1173.9,392v-2h2v2
	H1173.9z M1198.2,392v-2h2v2H1198.2z M1222.6,392v-2h2v2H1222.6z M1247,392v-2h2v2H1247z M1271.4,392v-2h2v2H1271.4z M1295.7,392v-2
	h2v2H1295.7z M1320.1,392v-2h2v2H1320.1z M1344.5,392v-2h2v2H1344.5z M1368.8,392v-2h2v2H1368.8z M1393.2,392v-2h2v2H1393.2z
	 M1417.6,392v-2h2v2H1417.6z M1442,392v-2h2v2H1442z M978.9,367.6v-2h2v2H978.9z M1003.2,367.6v-2h2v2H1003.2z M1027.6,367.6v-2h2v2
	H1027.6z M1052,367.6v-2h2v2H1052z M1076.4,367.6v-2h2v2H1076.4z M1100.8,367.6v-2h2v2H1100.8z M1125.1,367.6v-2h2v2H1125.1z
	 M1149.5,367.6v-2h2v2H1149.5z M1173.9,367.6v-2h2v2H1173.9z M1198.2,367.6v-2h2v2H1198.2z M1222.6,367.6v-2h2v2H1222.6z
	 M1247,367.6v-2h2v2H1247z M1271.4,367.6v-2h2v2H1271.4z M1295.7,367.6v-2h2v2H1295.7z M1320.1,367.6v-2h2v2H1320.1z M1344.5,367.6
	v-2h2v2H1344.5z M1368.8,367.6v-2h2v2H1368.8z M1393.2,367.6v-2h2v2H1393.2z M1417.6,367.6v-2h2v2H1417.6z M1442,367.6v-2h2v2H1442z
	 M978.9,343.3v-2h2v2H978.9z M1003.2,343.3v-2h2v2H1003.2z M1027.6,343.3v-2h2v2H1027.6z M1052,343.3v-2h2v2H1052z M1076.4,343.3v-2
	h2v2H1076.4z M1100.8,343.3v-2h2v2H1100.8z M1125.1,343.3v-2h2v2H1125.1z M1149.5,343.3v-2h2v2H1149.5z M1173.9,343.3v-2h2v2H1173.9
	z M1198.2,343.3v-2h2v2H1198.2z M1222.6,343.3v-2h2v2H1222.6z M1247,343.3v-2h2v2H1247z M1271.4,343.3v-2h2v2H1271.4z M1295.7,343.3
	v-2h2v2H1295.7z M1320.1,343.3v-2h2v2H1320.1z M1344.5,343.3v-2h2v2H1344.5z M1368.8,343.3v-2h2v2H1368.8z M1393.2,343.3v-2h2v2
	H1393.2z M1417.6,343.3v-2h2v2H1417.6z M1442,343.3v-2h2v2H1442z M978.9,318.9v-2h2v2H978.9z M1003.2,318.9v-2h2v2H1003.2z
	 M1027.6,318.9v-2h2v2H1027.6z M1052,318.9v-2h2v2H1052z M1076.4,318.9v-2h2v2H1076.4z M1100.8,318.9v-2h2v2H1100.8z M1125.1,318.9
	v-2h2v2H1125.1z M1149.5,318.9v-2h2v2H1149.5z M1173.9,318.9v-2h2v2H1173.9z M1198.2,318.9v-2h2v2H1198.2z M1222.6,318.9v-2h2v2
	H1222.6z M1247,318.9v-2h2v2H1247z M1271.4,318.9v-2h2v2H1271.4z M1295.7,318.9v-2h2v2H1295.7z M1320.1,318.9v-2h2v2H1320.1z
	 M1344.5,318.9v-2h2v2H1344.5z M1368.8,318.9v-2h2v2H1368.8z M1393.2,318.9v-2h2v2H1393.2z M1417.6,318.9v-2h2v2H1417.6z
	 M1442,318.9v-2h2v2H1442z M978.9,294.5v-2h2v2H978.9z M1003.2,294.5v-2h2v2H1003.2z M1027.6,294.5v-2h2v2H1027.6z M1052,294.5v-2h2
	v2H1052z M1076.4,294.5v-2h2v2H1076.4z M1100.8,294.5v-2h2v2H1100.8z M1125.1,294.5v-2h2v2H1125.1z M1149.5,294.5v-2h2v2H1149.5z
	 M1173.9,294.5v-2h2v2H1173.9z M1198.2,294.5v-2h2v2H1198.2z M1222.6,294.5v-2h2v2H1222.6z M1247,294.5v-2h2v2H1247z M1271.4,294.5
	v-2h2v2H1271.4z M1295.7,294.5v-2h2v2H1295.7z M1320.1,294.5v-2h2v2H1320.1z M1344.5,294.5v-2h2v2H1344.5z M1368.8,294.5v-2h2v2
	H1368.8z M1393.2,294.5v-2h2v2H1393.2z M1417.6,294.5v-2h2v2H1417.6z M1442,294.5v-2h2v2H1442z M978.9,270.1v-2h2v2H978.9z
	 M1003.2,270.1v-2h2v2H1003.2z M1027.6,270.1v-2h2v2H1027.6z M1052,270.1v-2h2v2H1052z M1076.4,270.1v-2h2v2H1076.4z M1100.8,270.1
	v-2h2v2H1100.8z M1125.1,270.1v-2h2v2H1125.1z M1149.5,270.1v-2h2v2H1149.5z M1173.9,270.1v-2h2v2H1173.9z M1198.2,270.1v-2h2v2
	H1198.2z M1222.6,270.1v-2h2v2H1222.6z M1247,270.1v-2h2v2H1247z M1271.4,270.1v-2h2v2H1271.4z M1295.7,270.1v-2h2v2H1295.7z
	 M1320.1,270.1v-2h2v2H1320.1z M1344.5,270.1v-2h2v2H1344.5z M1368.8,270.1v-2h2v2H1368.8z M1393.2,270.1v-2h2v2H1393.2z
	 M1417.6,270.1v-2h2v2H1417.6z M1442,270.1v-2h2v2H1442z M978.9,245.8v-2h2v2H978.9z M1003.2,245.8v-2h2v2H1003.2z M1027.6,245.8v-2
	h2v2H1027.6z M1052,245.8v-2h2v2H1052z M1076.4,245.8v-2h2v2H1076.4z M1100.8,245.8v-2h2v2H1100.8z M1125.1,245.8v-2h2v2H1125.1z
	 M1149.5,245.8v-2h2v2H1149.5z M1173.9,245.8v-2h2v2H1173.9z M1198.2,245.8v-2h2v2H1198.2z M1222.6,245.8v-2h2v2H1222.6z
	 M1247,245.8v-2h2v2H1247z M1271.4,245.8v-2h2v2H1271.4z M1295.7,245.8v-2h2v2H1295.7z M1320.1,245.8v-2h2v2H1320.1z M1344.5,245.8
	v-2h2v2H1344.5z M1368.8,245.8v-2h2v2H1368.8z M1393.2,245.8v-2h2v2H1393.2z M1417.6,245.8v-2h2v2H1417.6z M1442,245.8v-2h2v2H1442z
	 M978.9,221.4v-2h2v2H978.9z M1003.2,221.4v-2h2v2H1003.2z M1027.6,221.4v-2h2v2H1027.6z M1052,221.4v-2h2v2H1052z M1076.4,221.4v-2
	h2v2H1076.4z M1100.8,221.4v-2h2v2H1100.8z M1125.1,221.4v-2h2v2H1125.1z M1149.5,221.4v-2h2v2H1149.5z M1173.9,221.4v-2h2v2H1173.9
	z M1198.2,221.4v-2h2v2H1198.2z M1222.6,221.4v-2h2v2H1222.6z M1247,221.4v-2h2v2H1247z M1271.4,221.4v-2h2v2H1271.4z M1295.7,221.4
	v-2h2v2H1295.7z M1320.1,221.4v-2h2v2H1320.1z M1344.5,221.4v-2h2v2H1344.5z M1368.8,221.4v-2h2v2H1368.8z M1393.2,221.4v-2h2v2
	H1393.2z M1417.6,221.4v-2h2v2H1417.6z M1442,221.4v-2h2v2H1442z M978.9,197v-2h2v2H978.9z M1003.2,197v-2h2v2H1003.2z M1027.6,197
	v-2h2v2H1027.6z M1052,197v-2h2v2H1052z M1076.4,197v-2h2v2H1076.4z M1100.8,197v-2h2v2H1100.8z M1125.1,197v-2h2v2H1125.1z
	 M1149.5,197v-2h2v2H1149.5z M1173.9,197v-2h2v2H1173.9z M1198.2,197v-2h2v2H1198.2z M1222.6,197v-2h2v2H1222.6z M1247,197v-2h2v2
	H1247z M1271.4,197v-2h2v2H1271.4z M1295.7,197v-2h2v2H1295.7z M1320.1,197v-2h2v2H1320.1z M1344.5,197v-2h2v2H1344.5z M1368.8,197
	v-2h2v2H1368.8z M1393.2,197v-2h2v2H1393.2z M1417.6,197v-2h2v2H1417.6z M1442,197v-2h2v2H1442z M978.9,172.6v-2h2v2H978.9z
	 M1003.2,172.6v-2h2v2H1003.2z M1027.6,172.6v-2h2v2H1027.6z M1052,172.6v-2h2v2H1052z M1076.4,172.6v-2h2v2H1076.4z M1100.8,172.6
	v-2h2v2H1100.8z M1125.1,172.6v-2h2v2H1125.1z M1149.5,172.6v-2h2v2H1149.5z M1173.9,172.6v-2h2v2H1173.9z M1198.2,172.6v-2h2v2
	H1198.2z M1222.6,172.6v-2h2v2H1222.6z M1247,172.6v-2h2v2H1247z M1271.4,172.6v-2h2v2H1271.4z M1295.7,172.6v-2h2v2H1295.7z
	 M1320.1,172.6v-2h2v2H1320.1z M1344.5,172.6v-2h2v2H1344.5z M1368.8,172.6v-2h2v2H1368.8z M1393.2,172.6v-2h2v2H1393.2z
	 M1417.6,172.6v-2h2v2H1417.6z M1442,172.6v-2h2v2H1442z M978.9,148.3v-2h2v2H978.9z M1003.2,148.3v-2h2v2H1003.2z M1027.6,148.3v-2
	h2v2H1027.6z M1052,148.3v-2h2v2H1052z M1076.4,148.3v-2h2v2H1076.4z M1100.8,148.3v-2h2v2H1100.8z M1125.1,148.3v-2h2v2H1125.1z
	 M1149.5,148.3v-2h2v2H1149.5z M1173.9,148.3v-2h2v2H1173.9z M1198.2,148.3v-2h2v2H1198.2z M1222.6,148.3v-2h2v2H1222.6z
	 M1247,148.3v-2h2v2H1247z M1271.4,148.3v-2h2v2H1271.4z M1295.7,148.3v-2h2v2H1295.7z M1320.1,148.3v-2h2v2H1320.1z M1344.5,148.3
	v-2h2v2H1344.5z M1368.8,148.3v-2h2v2H1368.8z M1393.2,148.3v-2h2v2H1393.2z M1417.6,148.3v-2h2v2H1417.6z M1442,148.3v-2h2v2H1442z
	 M978.9,123.9v-2h2v2H978.9z M1003.2,123.9v-2h2v2H1003.2z M1027.6,123.9v-2h2v2H1027.6z M1052,123.9v-2h2v2H1052z M1076.4,123.9v-2
	h2v2H1076.4z M1100.8,123.9v-2h2v2H1100.8z M1125.1,123.9v-2h2v2H1125.1z M1149.5,123.9v-2h2v2H1149.5z M1173.9,123.9v-2h2v2H1173.9
	z M1198.2,123.9v-2h2v2H1198.2z M1222.6,123.9v-2h2v2H1222.6z M1247,123.9v-2h2v2H1247z M1271.4,123.9v-2h2v2H1271.4z M1295.7,123.9
	v-2h2v2H1295.7z M1320.1,123.9v-2h2v2H1320.1z M1344.5,123.9v-2h2v2H1344.5z M1368.8,123.9v-2h2v2H1368.8z M1393.2,123.9v-2h2v2
	H1393.2z M1417.6,123.9v-2h2v2H1417.6z M1442,123.9v-2h2v2H1442z M978.9,99.5v-2h2v2H978.9z M1003.2,99.5v-2h2v2H1003.2z
	 M1027.6,99.5v-2h2v2H1027.6z M1052,99.5v-2h2v2H1052z M1076.4,99.5v-2h2v2H1076.4z M1100.8,99.5v-2h2v2H1100.8z M1125.1,99.5v-2h2
	v2H1125.1z M1149.5,99.5v-2h2v2H1149.5z M1173.9,99.5v-2h2v2H1173.9z M1198.2,99.5v-2h2v2H1198.2z M1222.6,99.5v-2h2v2H1222.6z
	 M1247,99.5v-2h2v2H1247z M1271.4,99.5v-2h2v2H1271.4z M1295.7,99.5v-2h2v2H1295.7z M1320.1,99.5v-2h2v2H1320.1z M1344.5,99.5v-2h2
	v2H1344.5z M1368.8,99.5v-2h2v2H1368.8z M1393.2,99.5v-2h2v2H1393.2z M1417.6,99.5v-2h2v2H1417.6z M1442,99.5v-2h2v2H1442z
	 M978.9,75.2v-2h2v2H978.9z M1003.2,75.2v-2h2v2H1003.2z M1027.6,75.2v-2h2v2H1027.6z M1052,75.2v-2h2v2H1052z M1076.4,75.2v-2h2v2
	H1076.4z M1100.8,75.2v-2h2v2H1100.8z M1125.1,75.2v-2h2v2H1125.1z M1149.5,75.2v-2h2v2H1149.5z M1173.9,75.2v-2h2v2H1173.9z
	 M1198.2,75.2v-2h2v2H1198.2z M1222.6,75.2v-2h2v2H1222.6z M1247,75.2v-2h2v2H1247z M1271.4,75.2v-2h2v2H1271.4z M1295.7,75.2v-2h2
	v2H1295.7z M1320.1,75.2v-2h2v2H1320.1z M1344.5,75.2v-2h2v2H1344.5z M1368.8,75.2v-2h2v2H1368.8z M1393.2,75.2v-2h2v2H1393.2z
	 M1417.6,75.2v-2h2v2H1417.6z M1442,75.2v-2h2v2H1442z M978.9,50.8v-2h2v2H978.9z M1003.2,50.8v-2h2v2H1003.2z M1027.6,50.8v-2h2v2
	H1027.6z M1052,50.8v-2h2v2H1052z M1076.4,50.8v-2h2v2H1076.4z M1100.8,50.8v-2h2v2H1100.8z M1125.1,50.8v-2h2v2H1125.1z
	 M1149.5,50.8v-2h2v2H1149.5z M1173.9,50.8v-2h2v2H1173.9z M1198.2,50.8v-2h2v2H1198.2z M1222.6,50.8v-2h2v2H1222.6z M1247,50.8v-2
	h2v2H1247z M1271.4,50.8v-2h2v2H1271.4z M1295.7,50.8v-2h2v2H1295.7z M1320.1,50.8v-2h2v2H1320.1z M1344.5,50.8v-2h2v2H1344.5z
	 M1368.8,50.8v-2h2v2H1368.8z M1393.2,50.8v-2h2v2H1393.2z M1417.6,50.8v-2h2v2H1417.6z M1442,50.8v-2h2v2H1442z M978.9,26.4v-2h2v2
	H978.9z M1003.2,26.4v-2h2v2H1003.2z M1027.6,26.4v-2h2v2H1027.6z M1052,26.4v-2h2v2H1052z M1076.4,26.4v-2h2v2H1076.4z
	 M1100.8,26.4v-2h2v2H1100.8z M1125.1,26.4v-2h2v2H1125.1z M1149.5,26.4v-2h2v2H1149.5z M1173.9,26.4v-2h2v2H1173.9z M1198.2,26.4
	v-2h2v2H1198.2z M1222.6,26.4v-2h2v2H1222.6z M1247,26.4v-2h2v2H1247z M1271.4,26.4v-2h2v2H1271.4z M1295.7,26.4v-2h2v2H1295.7z
	 M1320.1,26.4v-2h2v2H1320.1z M1344.5,26.4v-2h2v2H1344.5z M1368.8,26.4v-2h2v2H1368.8z M1393.2,26.4v-2h2v2H1393.2z M1417.6,26.4
	v-2h2v2H1417.6z M1442,26.4v-2h2v2H1442z M978.9,2V0h2v2H978.9z M1003.2,2V0h2v2H1003.2z M1027.6,2V0h2v2H1027.6z M1052,2V0h2v2
	H1052z M1076.4,2V0h2v2H1076.4z M1100.8,2V0h2v2H1100.8z M1125.1,2V0h2v2H1125.1z M1149.5,2V0h2v2H1149.5z M1173.9,2V0h2v2H1173.9z
	 M1198.2,2V0h2v2H1198.2z M1222.6,2V0h2v2H1222.6z M1247,2V0h2v2H1247z M1271.4,2V0h2v2H1271.4z M1295.7,2V0h2v2H1295.7z M1320.1,2
	V0h2v2H1320.1z M1344.5,2V0h2v2H1344.5z M1368.8,2V0h2v2H1368.8z M1393.2,2V0h2v2H1393.2z M1417.6,2V0h2v2H1417.6z M1442,2V0h2v2
	H1442z"/>
</svg>
